<?xml version="1.0" standalone="no"?><!DOCTYPE svg PUBLIC "-//W3C//DTD SVG 1.1//EN" "http://www.w3.org/Graphics/SVG/1.1/DTD/svg11.dtd"><svg t="1586744176993" class="icon" viewBox="0 0 1024 1024" version="1.1" xmlns="http://www.w3.org/2000/svg" p-id="2609" xmlns:xlink="http://www.w3.org/1999/xlink" width="48" height="48"><defs><style type="text/css"></style></defs><path d="M926.82752 115.18464h-248.59392c-69.7472 0-130.89792 36.32384-165.1968 90.87232-34.29888-54.54848-95.44704-90.87232-165.2224-90.87232H97.19552C43.49696 115.18464-0.00256 158.1824-0.00256 211.23328v543.91296c0 53.04832 43.49952 96.04864 97.19808 96.04864h303.1424c24.59904 34.82368 65.42336 57.62304 111.67232 57.62304 46.22336 0 87.07328-22.79936 111.64672-57.62304h303.17056c53.64736 0 97.16992-43.00032 97.16992-96.04864V211.23328c0-53.04832-43.52256-96.04864-97.16992-96.04864z m38.848 639.9616c0 21.19936-17.40032 38.39744-38.848 38.39744H587.31008c-8.62464 33.14944-39.07584 57.6512-75.29984 57.6512s-66.67264-24.4992-75.32288-57.6512H97.19552c-21.44768 0-38.8736-17.19808-38.8736-38.39744V211.23328c0-21.22496 17.42592-38.4256 38.8736-38.4256h250.61888c75.1488 0 136.07168 60.20096 136.07168 134.44864v315.76832h0.09984c1.14944 14.87616 13.69856 26.57536 29.04832 26.57536 15.32416 0 27.89888-11.6992 29.04832-26.57536h0.09984V307.25376c0-74.24768 60.89984-134.44864 136.04864-134.44864h248.59392c21.44768 0 38.848 17.20064 38.848 38.4256v543.91552zM357.9904 355.02848H203.29472c-13.39904 0-24.29952 10.74944-24.29952 24s10.89792 23.9744 24.29952 23.9744h154.69568c13.42464 0 24.29952-10.74944 24.29952-23.9744 0-13.25056-10.87488-24-24.29952-24z m0 209.87136H203.29472c-13.39904 0-24.29952 10.74688-24.29952 23.97184 0 13.25056 10.89792 24 24.29952 24h154.69568c13.42464 0 24.29952-10.74944 24.29952-24 0-13.22496-10.87488-23.97184-24.29952-23.97184z m464.18688 0h-154.72128c-13.39904 0-24.27392 10.74688-24.27392 23.97184 0 13.25056 10.87488 24 24.27392 24h154.72128c13.39904 0 24.27392-10.74944 24.27392-24 0-13.22496-10.87488-23.97184-24.27392-23.97184z m0-209.87136h-154.72128c-13.39904 0-24.27392 10.74944-24.27392 24s10.87488 23.9744 24.27392 23.9744h154.72128c13.39904 0 24.27392-10.74944 24.27392-23.9744 0-13.25056-10.87488-24-24.27392-24z" p-id="2610" fill="#515151"></path></svg>