<?xml version="1.0" encoding="utf-8"?>
<!-- Generator: Adobe Illustrator 21.0.0, SVG Export Plug-In . SVG Version: 6.00 Build 0)  -->
<svg version="1.1" id="图层_1" xmlns="https://www.w3.org/2000/svg" xmlns:xlink="https://www.w3.org/1999/xlink" x="0px" y="0px"
	 viewBox="0 0 1024 1024" style="enable-background:new 0 0 1024 1024;" xml:space="preserve" width="20px" height="18px">
<g>
	<path fill="#989898" d="M104.3,898.8c-5.6,0-11.1-2.3-15-6.5c-5-5.4-6.7-13-4.5-20l50.3-160.8C87.4,650.1,62.3,579,62.3,505.2
		c0-208.2,201.4-377.6,449-377.6s449,169.4,449,377.6s-201.4,377.6-449,377.6c-65.5,0-128.6-11.6-187.6-34.4l-214.8,49.9
		C107.4,898.6,105.9,898.8,104.3,898.8z M511.3,168.5c-225.1,0-408.2,151.1-408.2,336.8c0,67.7,24.4,133.1,70.5,189
		c4.4,5.3,5.8,12.5,3.7,19.1l-42.9,137.2l186.3-43.3c4.1-0.9,8.3-0.6,12.2,0.9c55.8,22.5,115.9,33.8,178.4,33.8
		c225.1,0,408.2-151.1,408.2-336.8S736.4,168.5,511.3,168.5z"/>
</g>
<g>
	<g fill="#989898">
		<circle cx="339.1" cy="513.2" r="32.4"/>
	</g>
	<g fill="#989898">
		<circle cx="511.3" cy="513.2" r="32.4"/>
	</g>
	<g fill="#989898">
		<circle cx="683.6" cy="513.2" r="32.4"/>
	</g>
</g>
</svg>
