<?xml version="1.0" standalone="no"?><!DOCTYPE svg PUBLIC "-//W3C//DTD SVG 1.1//EN" "https://www.w3.org/Graphics/SVG/1.1/DTD/svg11.dtd"><svg class="icon" width="20px" height="20px" viewBox="0 0 1024 1024" version="1.1" xmlns="http://www.w3.org/2000/svg"><path fill="#333333" d="M463.9 804.4c-194.7 0-353.1-158.4-353.1-353.1S269.2 98.2 463.9 98.2 817 256.6 817 451.3 658.6 804.4 463.9 804.4z m0-651.9c-164.8 0-298.8 134-298.8 298.8s134 298.8 298.8 298.8 298.8-134 298.8-298.8-134-298.8-298.8-298.8zM884.9 926.6c-7.2 0-14.4-2.9-19.8-8.6l-198-210.6c-10.3-10.9-9.7-28.1 1.2-38.4 10.9-10.3 28.1-9.8 38.4 1.2l198 210.6c10.3 10.9 9.7 28.1-1.2 38.4-5.2 5-11.9 7.4-18.6 7.4z" /></svg>