<?xml version="1.0" standalone="no"?><!DOCTYPE svg PUBLIC "-//W3C//DTD SVG 1.1//EN" "http://www.w3.org/Graphics/SVG/1.1/DTD/svg11.dtd"><svg class="icon" width="20px" height="20px" viewBox="0 0 1024 1024" version="1.1" xmlns="http://www.w3.org/2000/svg"><path fill="#333333" d="M716.1 487H536.8V307.7c0-13.2-10.7-23.8-23.8-23.8s-23.8 10.7-23.8 23.8V487H309.9c-13.2 0-23.8 10.7-23.8 23.8 0 13.2 10.7 23.8 23.8 23.8h179.3v179.3c0 13.2 10.7 23.8 23.8 23.8s23.8-10.7 23.8-23.8V534.6h179.3c13.2 0 23.8-10.7 23.8-23.8 0-13.2-10.6-23.8-23.8-23.8zM513 64.2c-246.2 0-446.6 200.3-446.6 446.6C66.4 757 266.8 957.4 513 957.4c246.2 0 446.6-200.3 446.6-446.6 0-246.2-200.4-446.6-446.6-446.6z m0 845.5c-220 0-398.9-179-398.9-398.9S293 111.9 513 111.9s398.9 179 398.9 398.9S733 909.7 513 909.7z" /></svg>