<?xml version="1.0" encoding="utf-8"?>
<!-- Generator: Adobe Illustrator 21.0.0, SVG Export Plug-In . SVG Version: 6.00 Build 0)  -->
<svg version="1.1" id="图层_1" xmlns="http://www.w3.org/2000/svg" xmlns:xlink="http://www.w3.org/1999/xlink" x="0px" y="0px"
	 viewBox="0 0 1024 1024" style="enable-background:new 0 0 1024 1024;" xml:space="preserve" width="16px" height="16px">
<g>
	<path fill="#4CACFF" d="M729.1,960.9H296.9c-25.6,0-46.3-20.7-46.3-46.3V111.9c0-25.6,20.8-46.3,46.3-46.3h432.2c25.6,0,46.3,20.7,46.3,46.3v802.7
		C775.4,940.2,754.7,960.9,729.1,960.9L729.1,960.9z M513,914.6c17.1,0,30.9-13.8,30.9-30.9c0-17.1-13.8-30.9-30.9-30.9
		c-17.1,0-30.9,13.8-30.9,30.9C482.1,900.8,495.9,914.6,513,914.6L513,914.6z M729.1,158.2H296.9v648.3h432.2V158.2z M729.1,158.2"
		/>
</g>
</svg>
