<?xml version="1.0" encoding="utf-8"?>
<!-- Generator: Adobe Illustrator 21.0.0, SVG Export Plug-In . SVG Version: 6.00 Build 0)  -->
<svg version="1.1" id="图层_1" xmlns="http://www.w3.org/2000/svg" xmlns:xlink="http://www.w3.org/1999/xlink" x="0px" y="0px"
	 viewBox="0 0 1024 1024" style="enable-background:new 0 0 1024 1024;" xml:space="preserve" width="16px" height="16px">
<style type="text/css">
	.st0{clip-path:url(#SVGID_2_);fill:#4CACFF;}
</style>
<g>
	<g>
		<defs>
			<rect id="SVGID_1_" x="63.1" y="174" width="897.9" height="680.9"/>
		</defs>
		<clipPath id="SVGID_2_">
			<use xlink:href="#SVGID_1_"  style="overflow:visible;"/>
		</clipPath>
		<path class="st0" d="M879.1,174.4H144.4c-45,0-81.5,36.6-81.5,81.5v516.2c0,45,36.6,81.5,81.5,81.5h734.6
			c45,0,81.5-36.6,81.5-81.5V255.9C960.6,211,924,174.4,879.1,174.4L879.1,174.4z M879.1,230.5c4.1,0,8,1,11.5,2.8L511.8,506.4
			L133,233.3c3.6-1.8,7.5-2.8,11.5-2.8H879.1z M879.1,797.5H144.4c-14,0-25.4-11.4-25.4-25.4V292.4l392.7,283.2l392.7-283.2v479.8
			C904.5,786.1,893.1,797.5,879.1,797.5L879.1,797.5z M879.1,797.5"/>
	</g>
</g>
</svg>
