<?xml version="1.0" standalone="no"?><!DOCTYPE svg PUBLIC "-//W3C//DTD SVG 1.1//EN" "http://www.w3.org/Graphics/SVG/1.1/DTD/svg11.dtd"><svg class="icon" width="20px" height="20px" viewBox="0 0 1024 1024" version="1.1" xmlns="http://www.w3.org/2000/svg"><path fill="#333333" d="M797.8 567.8c1.8-13.1 2.8-26.3 2.8-39.4v-177c0-158.6-129-287.6-287.6-287.6s-287.6 129-287.6 287.6v177c0 13.1 0.9 26.3 2.8 39.4-59.7 18-102.3 73.6-102.3 137.5 0 79.3 64.5 143.8 143.8 143.8h112.6c10.6 62.7 65.1 110.6 130.7 110.6s120.1-47.9 130.7-110.6h112.6c79.3 0 143.8-64.5 143.8-143.8 0-63.9-42.6-119.4-102.3-137.5zM513 915.5c-41.2 0-75.8-28.2-85.7-66.4h171.4c-9.9 38.1-44.5 66.4-85.7 66.4z m243.3-110.6H269.7c-54.9 0-99.5-44.7-99.5-99.5 0-49.6 37.2-92 86.5-98.6 6.1-0.8 11.6-4.2 15.2-9.2 3.6-5.1 4.8-11.4 3.5-17.4-3.7-17.1-5.6-34.5-5.6-51.7v-177c0-134.2 109.2-243.3 243.3-243.3s243.3 109.2 243.3 243.3v177c0 17.3-1.9 34.7-5.6 51.7-1.3 6-0.1 12.4 3.5 17.4 3.6 5.1 9.1 8.4 15.2 9.2 49.3 6.6 86.5 48.9 86.5 98.6-0.1 54.8-44.8 99.5-99.7 99.5z" /></svg>