<?xml version="1.0" encoding="utf-8"?>
<!-- Generator: Adobe Illustrator 21.0.0, SVG Export Plug-In . SVG Version: 6.00 Build 0)  -->
<svg version="1.1" id="图层_1" xmlns="http://www.w3.org/2000/svg" xmlns:xlink="http://www.w3.org/1999/xlink" x="0px" y="0px"
	 viewBox="0 0 1024 1024" style="enable-background:new 0 0 1024 1024;" xml:space="preserve" width="17px" height="18px">
<g>
	<g>
		<path fill="#666" d="M739.9,279.2c58.3,0,105.6-47.2,105.6-105.3c0-58.2-47.3-105.3-105.7-105.3c-35.8,0-69.1,18.2-88.5,48.3
			c-19.4,30.1-22.1,68-7.3,100.6L474.4,371.2c-29.8-17.6-63.8-26.9-98.4-26.8c-51.2-0.1-100.4,20.2-136.7,56.4
			c-36.3,36.2-56.7,85.3-56.8,136.6c0.2,106.7,86.7,193.1,193.4,193c37.3,0,72.3-10.6,101.8-28.9l111.1,100.7
			c-15,32.6-12.3,70.6,7.2,100.8c19.4,30.2,53,48.4,88.9,48.2c58.3,0,105.6-47.2,105.6-105.3c0-58.2-47.3-105.3-105.6-105.3
			c-22.6,0-43.5,7-60.7,19.1l-103.7-94.1c31.6-35.3,49-81,49-128.3c0-50.6-19.5-96.7-51.4-131.1L679.4,260
			C696.4,272.1,717.5,279.1,739.9,279.2L739.9,279.2z M739.9,123.8c27.7,0,50.3,22.5,50.3,50.2c0,27.8-22.5,50.3-50.3,50.3
			c-27.8,0-50.3-22.5-50.3-50.3C689.7,146.2,712.3,123.8,739.9,123.8L739.9,123.8z M278.3,634.9c-26-25.8-40.5-60.9-40.4-97.5
			c0-36.8,14.3-71.4,40.4-97.5c25.9-25.9,61.1-40.5,97.7-40.3c36.7-0.1,71.8,14.4,97.7,40.3c26.1,26,40.4,60.6,40.4,97.5
			c0.1,36.6-14.5,71.7-40.4,97.5c-25.9,25.9-61.1,40.5-97.7,40.3C339.3,675.4,304.1,660.8,278.3,634.9L278.3,634.9z M684.9,795.8
			c26.7,1.3,47.7,23.4,47.7,50.1c0,26.7-21,48.8-47.7,50.1c-26.7-1.3-47.7-23.4-47.7-50.1C637.2,819.2,658.2,797.2,684.9,795.8
			L684.9,795.8z M684.9,795.8"/>
	</g>
</g>
</svg>
