<?xml version="1.0" encoding="utf-8"?>
<!-- Generator: Adobe Illustrator 21.0.0, SVG Export Plug-In . SVG Version: 6.00 Build 0)  -->
<svg version="1.1" id="图层_1" xmlns="http://www.w3.org/2000/svg" xmlns:xlink="http://www.w3.org/1999/xlink" x="0px" y="0px" width="15px" height="15px"
	 viewBox="0 0 1024 1024" style="enable-background:new 0 0 1024 1024;" xml:space="preserve">
<g>
	<path fill="#999" d="M302.1,207.7c-16.5,0-29.8,13.3-29.8,29.8v603.6c0,16.5,13.3,29.8,29.8,29.8s29.8-13.3,29.8-29.8V237.5
		C332,221,318.6,207.7,302.1,207.7z"/>
	<path fill="#999" d="M92.9,319.5c-16.5,0-29.8,13.3-29.8,29.8V707c0,16.5,13.3,29.8,29.8,29.8s29.8-13.3,29.8-29.8V349.3
		C122.7,332.8,109.4,319.5,92.9,319.5z"/>
	<path fill="#999" d="M511.3,88.5c-16.5,0-29.8,13.3-29.8,29.8v789.9c0,16.5,13.3,29.8,29.8,29.8s29.8-13.3,29.8-29.8V118.3
		C541.1,101.8,527.8,88.5,511.3,88.5z"/>
	<path fill="#999" d="M720.5,207.7c-16.5,0-29.8,13.3-29.8,29.8v603.6c0,16.5,13.3,29.8,29.8,29.8c16.5,0,29.8-13.3,29.8-29.8V237.5
		C750.3,221,737,207.7,720.5,207.7z"/>
	<path fill="#999" d="M929.7,319.5c-16.5,0-29.8,13.3-29.8,29.8V707c0,16.5,13.3,29.8,29.8,29.8c16.5,0,29.8-13.3,29.8-29.8V349.3
		C959.5,332.8,946.2,319.5,929.7,319.5z"/>
</g>
</svg>
