<?xml version="1.0" encoding="utf-8"?>
<!-- Generator: Adobe Illustrator 21.0.0, SVG Export Plug-In . SVG Version: 6.00 Build 0)  -->
<svg version="1.1" id="图层_1" xmlns="http://www.w3.org/2000/svg" xmlns:xlink="http://www.w3.org/1999/xlink" x="0px" y="0px"
	 viewBox="0 0 1024 1024" style="enable-background:new 0 0 1024 1024;" xml:space="preserve" width="8px" height="8px">
<g>
	<g>
		<path fill="#fff" d="M147.8,922.6c-12,0-24-4.6-33.2-13.8c-18.3-18.3-18.3-48.1,0-66.4L845,112c18.3-18.3,48.1-18.3,66.4,0s18.3,48.1,0,66.4
			L181,908.8C171.8,918,159.8,922.6,147.8,922.6z"/>
	</g>
	<g>
		<path fill="#fff" d="M878.2,922.6c-12,0-24-4.6-33.2-13.8L114.6,178.4c-18.3-18.3-18.3-48.1,0-66.4s48.1-18.3,66.4,0l730.4,730.4
			c18.3,18.3,18.3,48.1,0,66.4C902.2,918,890.2,922.6,878.2,922.6z"/>
	</g>
</g>
</svg>
