<?xml version="1.0" encoding="utf-8"?>
<!-- Generator: Adobe Illustrator 21.0.0, SVG Export Plug-In . SVG Version: 6.00 Build 0)  -->
<svg version="1.1" id="图层_1" xmlns="http://www.w3.org/2000/svg" xmlns:xlink="http://www.w3.org/1999/xlink" x="0px" y="0px"
	 viewBox="0 0 1024 1024" style="enable-background:new 0 0 1024 1024;" xml:space="preserve" width="14px" height="14px">
<g>
	<g>
		<path fill="#fff" d="M311.1,739c-6.1,0-12.2-2.3-16.8-7L69.7,507.4l224.6-224.6c9.3-9.3,24.3-9.3,33.6,0c9.3,9.3,9.3,24.3,0,33.6l-191,191
			l191,191c9.3,9.3,9.3,24.3,0,33.6C323.3,736.7,317.2,739,311.1,739z"/>
	</g>
	<g>
		<path fill="#fff" d="M711.5,739c-6.1,0-12.2-2.3-16.8-7c-9.3-9.3-9.3-24.3,0-33.6l191-191l-191-191c-9.3-9.3-9.3-24.3,0-33.6
			c9.3-9.3,24.3-9.3,33.6,0L953,507.4L728.3,732C723.7,736.7,717.6,739,711.5,739z"/>
	</g>
	<g>
		<path fill="#fff" d="M418.5,814.7c-2.4,0-4.8-0.4-7.2-1.1c-12.5-4-19.4-17.3-15.5-29.8l179.6-567.1c4-12.5,17.3-19.4,29.8-15.5
			c12.5,4,19.4,17.3,15.5,29.8L441.1,798.1C437.9,808.2,428.6,814.7,418.5,814.7z"/>
	</g>
</g>
</svg>
