<?xml version="1.0" encoding="utf-8"?>
<!-- Generator: Adobe Illustrator 21.0.0, SVG Export Plug-In . SVG Version: 6.00 Build 0)  -->
<svg version="1.1" id="图层_1" xmlns="http://www.w3.org/2000/svg" xmlns:xlink="http://www.w3.org/1999/xlink" x="0px" y="0px"
	 viewBox="0 0 1024 1024" style="enable-background:new 0 0 1024 1024;" xml:space="preserve" width="17px" height="18px">
<style type="text/css">
	.st0{fill:#666;}
</style>
<g>
	<g>
		<path class="st0" d="M480.4,875.2H250.1c-2.5,0-5.1-0.1-7.6-0.3c-1.5-0.1-2.9-0.2-4.3-0.4c7.9,0.9,2.8,0.4,1,0
			c-6-1.1-11.8-2.7-17.5-4.9c-4.8-1.8,5.6,2.5,0.9,0.4l-3.7-1.8c-2.5-1.3-4.9-2.7-7.2-4.1c-1.8-1.1-10.6-7.6-3.8-2.4
			c-4.2-3.4-8.2-7.1-11.8-11.2l-2.7-3.1c-3.2-4,3.6,4.8,0.6,0.7c-3.5-4.8-6.5-9.9-9.1-15.2c-0.8-1.5-2.7-6.3,0.3,0.9
			c-0.6-1.3-1-2.6-1.5-3.9c-2-5.7-3.5-11.6-4.4-17.7c1.4,8.7,0-1.2-0.1-3.4c-0.1-1.5-0.1-2.9-0.1-4.4V219c0-3.4,0.2-6.8,0.5-10.2
			c0.5-5.3-1,6.3-0.1,1c0.9-6,2.6-11.8,4.7-17.5c0.6-1.6,2.7-6.3-0.5,0.8l1.8-3.7c2.4-4.9,5.3-9.6,8.5-14.1c3-4.1-3.8,4.7-0.6,0.8
			c2.9-3.5,6-6.8,9.3-9.9c1.5-1.4,9-7.3,2.2-2.2c5.9-4.4,12.2-8.1,18.9-11c-7.1,3.1-2.5,1-0.9,0.4c5.3-1.9,10.7-3.4,16.2-4.4
			c1.8-0.4,7-1-1,0c4.2-0.5,8.5-0.7,12.8-0.6h524.9c3.2,0,6.3,0.1,9.5,0.4c4.6,0.8,9.1,1.9,13.6,3.3c2.1,0.6,11,4.3,3.1,0.9
			c6.7,2.9,13,6.6,18.9,11c-6.1-4.5-2.1-1.6-0.8-0.5c4.2,3.5,8,7.4,11.5,11.6c1.1,1.2,4.1,5.3-0.5-0.8c4.4,5.9,8.1,12.2,11,18.9
			c-3.5-7.9,0.3,1.1,0.9,3c1.4,4.5,2.5,9,3.3,13.6c0.9,5.3-0.7-6.3-0.1-1c0.4,2.9,0.5,5.8,0.5,8.7v356.8c0,13.6,11.4,25,25,25
			c13.8-0.1,24.9-11.2,25-25V219.4c0-21.9-5.9-43.7-17.1-62.6c-14.7-23.9-37.1-42.2-63.6-51.7c-17.5-6.7-36-6.9-54.5-6.9H267
			c-16.2,0-31.9,0-48,4c-52.3,13.2-90,63.2-90,116.8v582c0,35.1,13,68.9,39.3,92.7c21.3,19.1,48.5,30.2,77,31.5
			c5.7,0.3,11.3,0.1,17,0.1h218c13.8-0.1,24.9-11.2,25-25C505.3,886.5,494.2,875.4,480.4,875.2L480.4,875.2z M854.2,687l-97.5,101.6
			l-90.3,94h35.4l-73.2-65.2c-10.2-9-25.4-10-35.4,0c-9.2,9.3-10.2,26.3,0,35.4l73.3,65.2c10,9,25.5,10.3,35.4,0l97.5-101.6l90.3-94
			c9.7-9.8,9.7-25.6,0-35.4C879.8,677.3,864,677.3,854.2,687L854.2,687z M349.9,338.5h326.3c13.8-0.1,24.9-11.3,25-25
			c-0.1-13.8-11.3-24.9-25-25H349.9c-13.8,0.1-24.9,11.3-25,25C324.8,327.1,336.2,338.5,349.9,338.5L349.9,338.5z M349.9,534.1
			h326.3c13.8-0.1,24.9-11.2,25-25c-0.1-13.8-11.3-24.9-25-25H349.9c-13.8,0.1-24.9,11.3-25,25C324.8,522.7,336.2,534.1,349.9,534.1
			L349.9,534.1z M349.9,729.7h130.6c13.8-0.2,24.9-11.3,25-25c-0.1-13.8-11.3-24.9-25-25H349.8c-13.8,0.2-24.9,11.3-25,25
			C324.8,718.3,336.2,729.7,349.9,729.7L349.9,729.7z M349.9,729.7"/>
	</g>
</g>
</svg>
