<?xml version="1.0" encoding="utf-8"?>
<!-- Generator: Adobe Illustrator 21.0.0, SVG Export Plug-In . SVG Version: 6.00 Build 0)  -->
<svg version="1.1" id="图层_1" xmlns="http://www.w3.org/2000/svg" xmlns:xlink="http://www.w3.org/1999/xlink" x="0px" y="0px"
	 viewBox="0 0 1024 1024" style="enable-background:new 0 0 1024 1024;" xml:space="preserve">
<g>
	<path d="M772.8,928.2c-2.4,0-4.8-0.6-7.1-1.7L513,793.6L260.2,926.5c-5.1,2.7-11.3,2.2-16-1.2c-4.7-3.4-7-9.1-6-14.8L286.5,629
		L82,429.7c-4.1-4-5.6-10.1-3.8-15.6c1.8-5.5,6.5-9.5,12.2-10.3L373,362.8l126.4-256.1c2.6-5.2,7.8-8.5,13.6-8.5
		c5.8,0,11.1,3.3,13.6,8.5L653,362.8l282.6,41.1c5.7,0.8,10.5,4.8,12.2,10.3c1.8,5.5,0.3,11.5-3.8,15.6L739.5,629l48.3,281.5
		c1,5.7-1.4,11.4-6,14.8C779.1,927.2,776,928.2,772.8,928.2z M513,761.3c2.4,0,4.9,0.6,7.1,1.7l232.6,122.3l-44.4-259
		c-0.8-4.9,0.8-9.9,4.4-13.4l188.2-183.4l-260.1-37.8c-4.9-0.7-9.2-3.8-11.4-8.3L513,147.7L396.7,383.3c-2.2,4.5-6.5,7.6-11.4,8.3
		l-260.1,37.8l188.2,183.4c3.6,3.5,5.2,8.5,4.4,13.4l-44.4,259L505.9,763C508.1,761.9,510.6,761.3,513,761.3z"/>
</g>
</svg>
