<?xml version="1.0" encoding="utf-8"?>
<!-- Generator: Adobe Illustrator 21.0.0, SVG Export Plug-In . SVG Version: 6.00 Build 0)  -->
<svg version="1.1" id="图层_1" xmlns="http://www.w3.org/2000/svg" xmlns:xlink="http://www.w3.org/1999/xlink" x="0px" y="0px"
	 viewBox="0 0 1024 1024" style="enable-background:new 0 0 1024 1024;" xml:space="preserve" width="14px" height="16px">
<g>
	<path fill="#ccc" d="M852.1,272.8c-14.5,0-26.3,11.8-26.3,26.3v476.3c0,72.4-58.9,131.4-131.4,131.4H301.9c-72.4,0-131.4-58.9-131.4-131.4
		V299.1c0-14.5-11.8-26.3-26.3-26.3c-14.5,0-26.3,11.8-26.3,26.3v476.3c0,101.4,82.5,183.9,183.9,183.9h392.5
		c101.4,0,183.9-82.5,183.9-183.9V299.1C878.4,284.6,866.6,272.8,852.1,272.8z"/>
	<path fill="#ccc" d="M288.8,426.9v325.7c0,14.5,11.8,26.3,26.3,26.3c14.5,0,26.3-11.8,26.3-26.3V426.9c0-14.5-11.8-26.3-26.3-26.3
		C300.6,400.6,288.8,412.4,288.8,426.9z"/>
	<path fill="#ccc" d="M485.1,392.7v394.2c0,14.5,11.8,26.3,26.3,26.3s26.3-11.8,26.3-26.3V392.7c0-14.5-11.8-26.3-26.3-26.3
		S485.1,378.2,485.1,392.7z"/>
	<path fill="#ccc" d="M655,426.9v325.7c0,14.5,11.8,26.3,26.3,26.3s26.3-11.8,26.3-26.3V426.9c0-14.5-11.8-26.3-26.3-26.3S655,412.4,655,426.9z"
		/>
	<path fill="#ccc" d="M144.3,230.6H681c0.1,0,0.2,0,0.4,0c0.1,0,0.3,0,0.4,0h170.4c14.5,0,26.3-11.8,26.3-26.3c0-14.5-11.8-26.3-26.3-26.3H698.2
		l-44.8-98.5c-4.3-9.4-13.6-15.4-23.9-15.4H366.9c-10.3,0-19.6,6-23.9,15.4l-44.9,98.5H144.3c-14.5,0-26.3,11.8-26.3,26.3
		C118,218.9,129.7,230.6,144.3,230.6z M383.8,116.8h228.7l27.9,61.3H355.9L383.8,116.8z"/>
</g>
</svg>
