<?xml version="1.0" encoding="utf-8"?>
<!-- Generator: Adobe Illustrator 21.0.0, SVG Export Plug-In . SVG Version: 6.00 Build 0)  -->
<svg version="1.1" id="图层_1" xmlns="http://www.w3.org/2000/svg" xmlns:xlink="http://www.w3.org/1999/xlink" x="0px" y="0px"
	 viewBox="0 0 1024 1024" style="enable-background:new 0 0 1024 1024;" xml:space="preserve" width="17px" height="17px">
	 <style>
	    .st0{fill:#666}
	 </style>
<g>
	<g>
		<path class="st0" d="M763.8,813.3h-503c-108.4,0-196.6-88.2-196.6-196.6c0-50.9,20.3-100.4,56-137c-0.1-2.1-0.1-4.2-0.1-6.2
			c0-98.8,80.3-179.1,179.1-179.1c18.6,0,36.9,2.8,54.5,8.5c52.3-66.8,132.8-106.3,218-106.3c138.8,0,257.3,105.4,274.6,241.9
			c68.7,32.1,114.1,102.3,114.1,178.2C960.4,725.2,872.2,813.3,763.8,813.3z M299.2,331.3c-78.5,0-142.3,63.8-142.3,142.3
			c0,4,0.2,8,0.5,11.9c0.5,5.6-1.7,11.1-5.8,15C119.5,530.6,101,573,101,616.8c0,88.1,71.7,159.7,159.7,159.7h503
			c88.1,0,159.7-71.7,159.7-159.7c0-64.8-40.7-124.4-101.2-148.5c-6.5-2.6-10.9-8.6-11.5-15.5c-10.6-123-115.6-219.3-239.1-219.3
			c-78,0-151.4,38.1-196.4,102c-4.9,7-14.1,9.7-22,6.4C336.1,334.9,317.9,331.3,299.2,331.3z"/>
	</g>
	<g>
		<g>
			<path class="st0" d="M512.3,684.5c-2.4,0-4.8-0.5-7-1.4c-6.9-2.8-11.4-9.6-11.4-17V472.8c0-10.2,8.2-18.4,18.4-18.4
				c10.2,0,18.4,8.2,18.4,18.4v148.9l51.4-51.4c7.2-7.2,18.8-7.2,26,0s7.2,18.8,0,26l-82.8,82.8
				C521.8,682.6,517.1,684.5,512.3,684.5z"/>
		</g>
		<g>
			<path class="st0" d="M512.3,684.5c-4.8,0-9.5-1.9-13-5.4l-82.8-82.8c-7.2-7.2-7.2-18.8,0-26s18.8-7.2,26,0l51.4,51.4V472.8
				c0-10.2,8.2-18.4,18.4-18.4c10.2,0,18.4,8.2,18.4,18.4v193.3c0,7.4-4.5,14.2-11.4,17C517,684,514.7,684.5,512.3,684.5z"/>
		</g>
	</g>
</g>
</svg>
