<?xml version="1.0" encoding="utf-8"?>
<!-- Generator: Adobe Illustrator 21.0.0, SVG Export Plug-In . SVG Version: 6.00 Build 0)  -->
<svg version="1.1" id="图层_1" xmlns="http://www.w3.org/2000/svg" xmlns:xlink="http://www.w3.org/1999/xlink" x="0px" y="0px"
	 viewBox="0 0 1024 1024" style="enable-background:new 0 0 1024 1024;" xml:space="preserve" width="13px" height="13px">
<style type="text/css">
	.st0{fill:#fff;}
</style>
<g>
	<path class="st0" d="M758.6,96C622.9,229,404.5,444.9,281.8,567.7l144,144C548.4,589,766.4,373.5,902.2,240.4c11.6-11.4,11.7-30.1,0.2-41.6
		L799.8,96.3C788.5,84.9,770.1,84.8,758.6,96z"/>
	<path class="st0" d="M145,848.5c29.4-76.4,57.3-154.3,86.7-230.7c47,47,95.5,94,142.5,142.5c-74.9,29.4-151.3,60.2-227.8,89.6
		C145,850,145,850,145,848.5L145,848.5z"/>
	<path class="st0" d="M145,848.5"/>
	<line class="st0" x1="111.7" y1="974.5" x2="111.7" y2="75.8"/>
</g>
</svg>
