<?xml version="1.0" standalone="no"?><!DOCTYPE svg PUBLIC "-//W3C//DTD SVG 1.1//EN" "http://www.w3.org/Graphics/SVG/1.1/DTD/svg11.dtd"><svg class="icon" width="15px" height="15px" viewBox="0 0 1024 1024" version="1.1" xmlns="http://www.w3.org/2000/svg"><path fill="#333333" d="M764.5 63.9H258.2c-72.4 0-131.3 59.9-131.3 133.5v95.7c0 13.2 1.9 26.3 5.7 38.9 1.7 9.1 4.8 17.6 9.2 25.4l300.3 530.7c14.4 25.4 40.2 40.6 69.1 40.6 28.9 0 54.7-15.2 69.1-40.6l300.3-530.7c4.4-7.8 7.5-16.3 9.2-25.4 3.8-12.6 5.7-25.7 5.7-38.9v-95.7c0.2-73.6-58.7-133.5-131-133.5z m93.7 229.2c0 9.8-1.5 19.5-4.4 28.9l-0.6 2.4c-0.9 5.3-2.6 10.1-5.1 14.5L547.8 869.6c-7.7 13.5-21.3 21.6-36.5 21.6s-28.8-8.1-36.5-21.6L174.5 338.9c-2.5-4.4-4.2-9.2-5.1-14.5-0.1-0.8-0.3-1.6-0.6-2.4-2.9-9.4-4.4-19.1-4.4-28.9v-95.7c0-53 42.1-96 93.8-96h506.3c51.7 0 93.8 43.1 93.8 96v95.7zM661.8 347.1c-8.8-5.4-20.4-2.7-25.8 6.1L512.7 552.7 386.6 353c-5.5-8.8-17.1-11.4-25.9-5.8-8.8 5.5-11.4 17.1-5.8 25.9l142.2 225c3.4 5.4 9.4 8.7 15.8 8.7h0.1c6.5 0 12.5-3.4 15.9-8.9l139.1-225c5.4-8.8 2.6-20.4-6.2-25.8z" /></svg>