<?xml version="1.0" encoding="utf-8"?>
<!-- Generator: Adobe Illustrator 21.0.0, SVG Export Plug-In . SVG Version: 6.00 Build 0)  -->
<svg version="1.1" id="图层_1" xmlns="http://www.w3.org/2000/svg" xmlns:xlink="http://www.w3.org/1999/xlink" x="0px" y="0px"
	 viewBox="0 0 1024 1024" style="enable-background:new 0 0 1024 1024;" xml:space="preserve">
<style type="text/css">
	.st0{clip-path:url(#SVGID_2_);}
</style>
<g>
	<g>
		<defs>
			<rect id="SVGID_1_" x="97" y="98.2" width="828.2" height="829.5"/>
		</defs>
		<clipPath id="SVGID_2_">
			<use xlink:href="#SVGID_1_"  style="overflow:visible;"/>
		</clipPath>
		<path class="st0" d="M224.2,353.4h127.4V226.1H224.2V353.4z M96.9,926.6h382.1V544.5H96.9V926.6z M160.5,608.2h254.7v254.7H160.5
			V608.2z M224.2,799.2h127.4V671.8H224.2V799.2z M542.6,98.7v382.1h382.1V98.7H542.6z M861,417.1H606.3V162.4H861V417.1z
			 M861,671.8H733.7V544.5h-191v382.1h63.7V671.8H670v63.7h254.7v-191H861V671.8z M96.9,480.8h382.1V98.7H96.9V480.8z M160.5,162.4
			h254.7v254.7H160.5V162.4z M797.3,226.1H670v127.4h127.4V226.1z M861,926.6h63.7V799.2H861V926.6z M733.7,926.6h63.7V799.2h-63.7
			V926.6z M733.7,926.6"/>
	</g>
</g>
</svg>
