<?xml version="1.0" encoding="utf-8"?>
<!-- Generator: Adobe Illustrator 21.0.0, SVG Export Plug-In . SVG Version: 6.00 Build 0)  -->
<svg version="1.1" id="图层_1" xmlns="http://www.w3.org/2000/svg" xmlns:xlink="http://www.w3.org/1999/xlink" x="0px" y="0px"
	 viewBox="0 0 1024 1024" style="enable-background:new 0 0 1024 1024;" xml:space="preserve" width="26px" height="26px">
<style type="text/css">
	.st0{clip-path:url(#SVGID_2_);fill:#fff;}
</style>
<g>
	<g>
		<defs>
			<rect id="SVGID_1_" x="98" y="62.4" width="830" height="898.9"/>
		</defs>
		<clipPath id="SVGID_2_">
			<use xlink:href="#SVGID_1_"  style="overflow:visible;"/>
		</clipPath>
		<path class="st0" d="M795.9,355.3v505c0,17-13.9,31-31,31h-573c-17,0-31-13.9-31-31V227.6c0-17,13.9-31,31-31h440.4
			c19.9,0,35.9-16.1,35.9-35.9c0-18.3-14.7-33-33-33H199.1c-55.7,0-101.2,45.5-101.2,101.2v630c0,55.7,45.5,101.2,101.2,101.2h558.8
			c55.7,0,101.2-45.5,101.2-101.2v-503c0-17.5-14.3-31.9-31.9-31.9C810,324,795.9,338,795.9,355.3L795.9,355.3z M795.9,355.3"/>
		<path class="st0" d="M452.5,447.6H250.6c-14.2,0-25.8-11.7-25.8-25.8v-12.2c0-14.2,11.7-25.8,25.8-25.8h201.9
			c14.2,0,25.8,11.7,25.8,25.8v12.2C478.5,436,466.8,447.6,452.5,447.6L452.5,447.6z M641.9,639.7H250.6
			c-14.2,0-25.8-11.7-25.8-25.8v-12.2c0-14.2,11.7-25.8,25.8-25.8h391.3c14.2,0,25.8,11.7,25.8,25.8v12.2
			C667.7,628.1,656.1,639.7,641.9,639.7L641.9,639.7z M919.6,115.6L596,441c-10.1,10.1-26.5,10.1-36.6,0.1l-8.7-8.7
			c-10.1-10.1-10.1-26.5-0.1-36.6L874.3,70.4c10.1-10.1,26.5-10.1,36.6-0.1l8.7,8.7C929.7,89.1,929.7,105.5,919.6,115.6L919.6,115.6
			z M919.6,115.6"/>
	</g>
</g>
</svg>
