<?xml version="1.0" encoding="utf-8"?>
<!-- Generator: Adobe Illustrator 21.0.0, SVG Export Plug-In . SVG Version: 6.00 Build 0)  -->
<svg version="1.1" id="图层_1" xmlns="http://www.w3.org/2000/svg" xmlns:xlink="http://www.w3.org/1999/xlink" x="0px" y="0px"
	 viewBox="0 0 1024 1024" style="enable-background:new 0 0 1024 1024;" xml:space="preserve">
<g>
	<g>
		<path d="M512,65.9c-247.1,0-447.3,200.3-447.3,447.3S264.9,960.6,512,960.6s447.3-200.3,447.3-447.3S759.1,65.9,512,65.9L512,65.9
			z M512.7,826.4c-34.5,0-62.5-26.2-62.5-58.5c0-32.3,28-58.4,62.5-58.4c34.5,0,62.5,26.2,62.5,58.4
			C575.2,800.2,547.2,826.4,512.7,826.4L512.7,826.4z M624.7,339.2l-49.6,276.4c0,0.3,0.1,0.6,0.1,0.9c0,32.3-28,58.5-62.5,58.5
			c-34.5,0-62.5-26.2-62.5-58.5c0-0.3,0.1-0.6,0.1-0.9l-49.7-276.4h0.7c-0.4-3.8-0.7-7.6-0.7-11.5c0-58.1,50.2-105.2,112-105.2
			c61.9,0,112,47.1,112,105.2c0,3.9-0.3,7.7-0.7,11.5H624.7z M624.7,339.2"/>
	</g>
</g>
</svg>
