<?xml version="1.0" encoding="utf-8"?>
<!-- Generator: Adobe Illustrator 21.0.0, SVG Export Plug-In . SVG Version: 6.00 Build 0)  -->
<svg version="1.1" id="图层_1" xmlns="http://www.w3.org/2000/svg" xmlns:xlink="http://www.w3.org/1999/xlink" x="0px" y="0px"
	 viewBox="0 0 1024 1024" style="enable-background:new 0 0 1024 1024;" xml:space="preserve" width="14px" height="18px">
<g>
	<path d="M885.1,268.1l-161.6-189c-3.3-3.8-8-6-13.1-6h-518c-15.2,0-29.6,5.9-40.4,16.7c-10.8,10.8-16.7,25.1-16.7,40.4v765.9
		c0,31.5,25.6,57.1,57.1,57.1h639.6c31.5,0,57.1-25.6,57.1-57.1V279.3C889.2,275.2,887.7,271.3,885.1,268.1L885.1,268.1z M852,282.3
		H704.4V109.7L852,282.3z M832.1,918.9H192.5c-12.5,0-22.7-10.2-22.7-22.7V130.3c0-6.1,2.4-11.8,6.7-16.1c4.3-4.3,10-6.7,16.1-6.7
		H670v192c0,9.5,7.7,17.2,17.2,17.2h167.6v579.5C854.8,908.7,844.6,918.9,832.1,918.9L832.1,918.9z M832.1,918.9"/>
	<path d="M726.5,389.2H279.9c-9.5,0-17.2,7.7-17.2,17.2c0,9.5,7.7,17.2,17.2,17.2h446.6c9.5,0,17.2-7.7,17.2-17.2
		C743.7,396.9,736,389.2,726.5,389.2L726.5,389.2z M726.5,389.2"/>
	<path d="M726.5,572.1H279.9c-9.5,0-17.2,7.7-17.2,17.2c0,9.5,7.7,17.2,17.2,17.2h446.6c9.5,0,17.2-7.7,17.2-17.2
		C743.7,579.8,736,572.1,726.5,572.1L726.5,572.1z M726.5,572.1"/>
	<path d="M726.5,754.9H279.9c-9.5,0-17.2,7.7-17.2,17.2c0,9.5,7.7,17.2,17.2,17.2h446.6c9.5,0,17.2-7.7,17.2-17.2
		C743.7,762.6,736,754.9,726.5,754.9L726.5,754.9z M726.5,754.9"/>
</g>
</svg>
