<?xml version="1.0" encoding="utf-8"?>
<!-- Generator: Adobe Illustrator 21.0.0, SVG Export Plug-In . SVG Version: 6.00 Build 0)  -->
<svg version="1.1" id="图层_1" xmlns="http://www.w3.org/2000/svg" xmlns:xlink="http://www.w3.org/1999/xlink" x="0px" y="0px"
	 viewBox="0 0 1024 1024" style="enable-background:new 0 0 1024 1024;" xml:space="preserve" width="16px" height="16px">
<g>
	<g>
		<path d="M515.4,935c-111.7,0-216.8-43.5-295.8-122.5C140.5,733.4,97,628.4,97,516.6s43.5-216.8,122.5-295.8
			c79-79,184.1-122.5,295.8-122.5c111.8,0,216.8,43.5,295.8,122.5l0,0l0,0c79,79,122.5,184.1,122.5,295.8s-43.5,216.8-122.5,295.8
			C732.2,891.5,627.1,935,515.4,935z M515.4,142.9c-99.8,0-193.7,38.9-264.3,109.5c-70.6,70.6-109.5,164.5-109.5,264.3
			s38.9,193.7,109.5,264.3c70.6,70.6,164.5,109.5,264.3,109.5c99.8,0,193.7-38.9,264.3-109.5c70.6-70.6,109.5-164.5,109.5-264.3
			s-38.9-193.7-109.5-264.3l0,0C709.1,181.7,615.2,142.9,515.4,142.9z"/>
	</g>
	<g>
		<path d="M510,718c2,2.4,4.4,3.6,6.7,3.6c4.2,0,8.1-1.8,11.9-5.4c10.9-8.9,23.8-24.8,38.6-48l12.5,7.1
			c-36.1,62.6-74.5,94.1-114.9,94.1c-15.5,0-27.7-4.4-36.9-13.1c-9.1-8.7-13.7-19.8-13.7-33.1c0-8.9,2-20,6.1-33.7l49.7-170.8
			c4.8-16.2,7.1-28.5,7.1-36.9c0-5.4-2.4-10.1-6.9-14.3c-4.6-4.2-10.7-6.1-18.4-6.1c-3.8,0-8.1,0.2-12.9,0.4l4.4-14.3L564.5,428
			h21.2l-73.3,253.9c-3.8,14.5-5.7,24.2-5.7,28.9C506.8,713.4,508,715.6,510,718L510,718z M601,353.5
			c-10.3,10.1-22.8,15.3-37.3,15.3c-14.3,0-26.4-5.2-36.7-15.3c-10.1-10.3-15.3-22.6-15.3-37.1s5-26.9,15.1-37.3
			c10.1-10.3,22.4-15.5,36.9-15.5c14.9,0,27.4,5.2,37.5,15.5c10.1,10.3,15.3,22.8,15.3,37.3C616.6,330.9,611.3,343.2,601,353.5
			L601,353.5z M601,353.5"/>
	</g>
</g>
</svg>
