<?xml version="1.0" standalone="no"?><!DOCTYPE svg PUBLIC "-//W3C//DTD SVG 1.1//EN" "http://www.w3.org/Graphics/SVG/1.1/DTD/svg11.dtd"><svg class="icon" width="15px" height="15px" viewBox="0 0 1024 1024" version="1.1" xmlns="http://www.w3.org/2000/svg"><path fill="#333333" d="M762.5 64.2h-498C198.8 64.2 145 118 145 183.7v657.5c0 65.7 53.8 119.5 119.5 119.5h498.1c65.7 0 119.5-53.8 119.5-119.5V183.8c0-65.8-53.8-119.6-119.6-119.6z m79.7 777c0 43.9-35.8 79.7-79.7 79.7h-498c-43.9 0-79.7-35.8-79.7-79.7V183.8c0-43.9 35.8-79.7 79.7-79.7h498.1c43.9 0 79.7 35.8 79.7 79.7v657.4zM702.8 303.3H324.2c-11 0-19.9 8.9-19.9 19.9 0 11 8.9 19.9 19.9 19.9h378.5c11 0 19.9-8.9 19.9-19.9 0.1-11-8.8-19.9-19.8-19.9zM623.1 492.6H324.2c-11 0-19.9 8.9-19.9 19.9 0 11 8.9 19.9 19.9 19.9h298.9c11 0 19.9-8.9 19.9-19.9 0-11-8.9-19.9-19.9-19.9zM503.5 681.9H324.2c-11 0-19.9 8.9-19.9 19.9s8.9 19.9 19.9 19.9h179.3c11 0 19.9-8.9 19.9-19.9s-8.9-19.9-19.9-19.9z" /></svg>