<?xml version="1.0" encoding="utf-8"?>
<!-- Generator: Adobe Illustrator 21.0.0, SVG Export Plug-In . SVG Version: 6.00 Build 0)  -->
<svg version="1.1" id="图层_1" xmlns="http://www.w3.org/2000/svg" xmlns:xlink="http://www.w3.org/1999/xlink" x="0px" y="0px"
	 viewBox="0 0 1024 1024" style="enable-background:new 0 0 1024 1024;" xml:space="preserve">
<g>
	<line x1="28.5" y1="456" x2="28.5" y2="454.5"/>
	<path d="M577.1,377.6"/>
	<path d="M463.4,376.1v-74.5c0-63.2-46.7-118.8-109.7-124.8c-59.1-5.6-110.5,31.3-127.3,83.7c-5.1,15.8-19.2,27-35.9,26.8l-1,0
		c-24.1-0.4-41.8-23.6-34.8-46.6c24.4-80.5,99.2-139.1,187.6-138.9C450,102,537.9,195.1,537.9,302.6v73.5h39.2"/>
	<path d="M881,377.6H410.8c-43.3,0-78.4,35.1-78.4,78.4v390.3c0,43.3,35.1,78.4,78.4,78.4H881c43.3,0,78.4-35.1,78.4-78.4V456
		C959.3,412.7,924.2,377.6,881,377.6z M724.2,651.9c0,43.3-35.1,78.4-78.4,78.4c-43.3,0-78.4-35.1-78.4-78.4c0-0.3,0-0.5,0-0.8
		c0-0.3,0-0.5,0-0.8c0-43.3,35.1-78.4,78.4-78.4c43.3,0,78.4,35.1,78.4,78.4c0,0.3,0,0.5,0,0.8C724.2,651.4,724.2,651.7,724.2,651.9
		z"/>
</g>
</svg>
