<?xml version="1.0" standalone="no"?><!DOCTYPE svg PUBLIC "-//W3C//DTD SVG 1.1//EN" "http://www.w3.org/Graphics/SVG/1.1/DTD/svg11.dtd"><svg class="icon" width="15px" height="15px" viewBox="0 0 1024 1024" version="1.1" xmlns="http://www.w3.org/2000/svg"><path fill="#333333" d="M513 201.6c-247.1 0-448.1 139.2-448.1 310.2S265.9 822 513 822s448.1-139.2 448.1-310.2-201-310.2-448.1-310.2z m0 585.9c-228.1 0-413.6-123.7-413.6-275.7S284.9 236.1 513 236.1s413.6 123.7 413.6 275.7S741.1 787.5 513 787.5zM513 356.7c-85.5 0-155.1 69.6-155.1 155.1S427.5 666.9 513 666.9s155.1-69.6 155.1-155.1S598.5 356.7 513 356.7z m0 275.7c-66.5 0-120.6-54.1-120.6-120.6S446.5 391.2 513 391.2s120.6 54.1 120.6 120.6S579.5 632.4 513 632.4z" /></svg>