<?xml version="1.0" encoding="utf-8"?>
<!-- Generator: Adobe Illustrator 21.0.0, SVG Export Plug-In . SVG Version: 6.00 Build 0)  -->
<svg version="1.1" id="图层_1" xmlns="http://www.w3.org/2000/svg" xmlns:xlink="http://www.w3.org/1999/xlink" x="0px" y="0px"
	 viewBox="0 0 1024 1024" style="enable-background:new 0 0 1024 1024;" xml:space="preserve" width="16px" height="16px">
<style type="text/css">
	.st0{fill:none;stroke:#000000;stroke-width:4;stroke-linecap:round;stroke-linejoin:round;stroke-miterlimit:10;}
	.st1{fill:none;}
</style>
<g>
	<path class="st0" d="M147.8,460.4"/>
</g>
<g>
	<rect x="80" y="103.1" class="st1" width="866.3" height="817.2"/>
</g>
<g>
	<path d="M375.2,529.5v-0.1c0-11.8-9.5-21.3-21.5-21.3c-77.7,0-140.9-67.5-140.9-150.4c0-83,63.1-150.4,140.9-150.4
		c11.8,0,21.5-9.5,21.5-21.3c0-11.8-9.5-21.5-21.5-21.5c-101.3,0-183.7,86.7-183.7,193.2c0,70.9,36.5,132.9,90.8,166.6
		C145.3,565,62,680.4,62,815.8c0,11.8,9.5,21.3,21.3,21.3c11.8,0,21.3-9.5,21.3-21.3c0-146.1,111.7-265,248.9-265
		C365.5,550.8,375.2,541.3,375.2,529.5z"/>
	<path d="M867.5,642.3c-1.8-2-48.2-50.9-104.1-76c-23.4-10.5-44.9-17.8-63.1-22.9c74.1-36.6,125.4-112.8,125.4-200.9
		c0-123.5-100.6-224.1-224.2-224.1c-123.7,0-224.2,100.6-224.2,224.1c0,85.4,48.1,159.8,118.5,197.6
		c-146.7,45.2-253.6,182-253.6,343.5c0,11.8,9.5,21.3,21.5,21.3c11.8,0,21.3-9.5,21.3-21.3c0-174.5,142-316.5,315-316.6
		c2.3,0.3,4.5,0.1,6.7-0.4c2.8-0.1,5.5-0.4,8.3-0.6c1,0,1.8,0.1,2.8,0.1c31.6,0.8,91.6,19.6,127.7,36c55.1,25.1,92.3,70.9,94.3,73.2
		c50.6,57.8,78.2,130.9,78.2,208.3c0,11.8,9.5,21.3,21.3,21.3c11.8,0,21.3-9.5,21.3-21.3C960.7,793.6,927.8,708.5,867.5,642.3z
		 M647.3,530.7L647.3,530.7L647.3,530.7L647.3,530.7z M420.1,342.6c0-100.1,81.4-181.4,181.4-181.4c100,0,181.4,81.3,181.4,181.4
		c0,100.1-81.4,181.4-181.4,181.4C501.6,524,420.1,442.6,420.1,342.6z"/>
</g>
</svg>
