<?xml version="1.0" encoding="utf-8"?>
<!-- Generator: Adobe Illustrator 21.0.0, SVG Export Plug-In . SVG Version: 6.00 Build 0)  -->
<svg version="1.1" id="图层_1" xmlns="http://www.w3.org/2000/svg" xmlns:xlink="http://www.w3.org/1999/xlink" x="0px" y="0px"
	 viewBox="0 0 1024 1024" style="enable-background:new 0 0 1024 1024;" xml:space="preserve" width="10px" height="14px">
<path fill="#fff" d="M859.7,533.8c-17.6-17.6-46.2-17.6-63.8,0L556.1,773.5V143.3c0-24.9-20.2-45.1-45.1-45.1s-45.1,20.2-45.1,45.1v630.2
	L226.1,533.8c-17.6-17.6-46.2-17.6-63.8,0c-17.6,17.6-17.6,46.2,0,63.8l316.8,316.8c0,0,0.1,0.1,0.1,0.1c0.3,0.3,0.7,0.6,1,1
	c0.1,0.1,0.2,0.2,0.3,0.3c0.3,0.3,0.6,0.5,0.9,0.8c0.1,0.1,0.3,0.2,0.4,0.4c0.3,0.2,0.5,0.4,0.8,0.7c0.2,0.1,0.4,0.3,0.6,0.4
	c0.2,0.2,0.5,0.4,0.7,0.5c0.2,0.2,0.5,0.3,0.7,0.5c0.2,0.1,0.4,0.3,0.6,0.4c0.3,0.2,0.6,0.4,0.8,0.6c0.2,0.1,0.3,0.2,0.5,0.3
	c0.3,0.2,0.6,0.4,1,0.6c0.1,0.1,0.3,0.2,0.4,0.2c0.4,0.2,0.7,0.4,1.1,0.6c0.1,0.1,0.2,0.1,0.3,0.2c0.4,0.2,0.8,0.4,1.2,0.6
	c0.1,0,0.2,0.1,0.3,0.1c0.4,0.2,0.9,0.4,1.3,0.6c0.1,0,0.1,0.1,0.2,0.1c0.4,0.2,0.9,0.4,1.4,0.6c0,0,0.1,0,0.1,0.1c0,0,0.1,0,0.1,0
	c0.5,0.2,0.9,0.4,1.4,0.6c0.1,0,0.1,0,0.2,0.1c0.5,0.2,0.9,0.3,1.4,0.5c0.1,0,0.1,0,0.2,0.1c0.5,0.1,0.9,0.3,1.4,0.4
	c0.1,0,0.2,0.1,0.3,0.1c0.4,0.1,0.9,0.2,1.3,0.3c0.1,0,0.2,0.1,0.3,0.1c0.4,0.1,0.8,0.2,1.2,0.3c0.1,0,0.3,0.1,0.4,0.1
	c0.4,0.1,0.7,0.1,1.1,0.2c0.2,0,0.4,0.1,0.5,0.1c0.3,0.1,0.7,0.1,1,0.2c0.2,0,0.4,0.1,0.6,0.1c0.3,0,0.6,0.1,0.9,0.1
	c0.2,0,0.5,0.1,0.7,0.1c0.3,0,0.6,0,0.9,0.1c0.3,0,0.5,0,0.8,0.1c0.3,0,0.6,0,0.8,0c0.3,0,0.5,0,0.8,0c0.3,0,0.5,0,0.8,0
	c0.3,0,0.5,0,0.8,0c0.3,0,0.6,0,0.8,0c0.3,0,0.5,0,0.8,0c0.3,0,0.6,0,0.8-0.1c0.3,0,0.5,0,0.8-0.1c0.3,0,0.6-0.1,0.9-0.1
	c0.3,0,0.5-0.1,0.8-0.1c0.3,0,0.6-0.1,0.9-0.1c0.3,0,0.5-0.1,0.8-0.1c0.3,0,0.6-0.1,0.9-0.2c0.2,0,0.5-0.1,0.7-0.1
	c0.3-0.1,0.6-0.1,0.9-0.2c0.2-0.1,0.5-0.1,0.7-0.2c0.3-0.1,0.6-0.2,0.9-0.2c0.2-0.1,0.5-0.1,0.7-0.2c0.3-0.1,0.6-0.2,0.9-0.3
	c0.2-0.1,0.4-0.1,0.7-0.2c0.3-0.1,0.6-0.2,1-0.3c0.2-0.1,0.4-0.1,0.6-0.2c0.4-0.1,0.7-0.3,1-0.4c0.2-0.1,0.3-0.1,0.5-0.2
	c0.2-0.1,0.3-0.1,0.5-0.2c0.2-0.1,0.5-0.2,0.7-0.3c0.1-0.1,0.2-0.1,0.4-0.2c0.4-0.2,0.8-0.4,1.2-0.5c0.1,0,0.2-0.1,0.3-0.1
	c0.4-0.2,0.8-0.4,1.2-0.6c0.1,0,0.1-0.1,0.2-0.1c0.4-0.2,0.9-0.5,1.3-0.7c0,0,0.1-0.1,0.1-0.1c0.4-0.3,0.9-0.5,1.3-0.8
	c0,0,0,0,0.1,0c0.5-0.3,0.9-0.6,1.3-0.9c0,0,0,0,0,0c1.4-0.9,2.7-2,4-3c0,0,0,0,0,0c0.4-0.4,0.8-0.7,1.2-1.1c0,0,0.1-0.1,0.1-0.1
	c0.4-0.3,0.7-0.7,1.1-1c0,0,0.1-0.1,0.1-0.1l316.8-316.8C877.3,580,877.3,551.4,859.7,533.8z"/>
</svg>
