<?xml version="1.0" encoding="utf-8"?>
<!-- Generator: Adobe Illustrator 21.0.0, SVG Export Plug-In . SVG Version: 6.00 Build 0)  -->
<svg version="1.1" id="图层_1" xmlns="http://www.w3.org/2000/svg" xmlns:xlink="http://www.w3.org/1999/xlink" x="0px" y="0px"
	 viewBox="0 0 1024 1024" style="enable-background:new 0 0 1024 1024;" xml:space="preserve" width="10px" height="14px">
<g>
	<g>
		<path fill="#fff" d="M511,927.6c-24.9,0-45.1-20.2-45.1-45.1V143.3c0-18.2,11-34.7,27.9-41.7c16.9-7,36.3-3.1,49.2,9.8l316.8,316.8
			c17.6,17.6,17.6,46.2,0,63.8c-17.6,17.6-46.2,17.6-63.8,0L556.1,252.3v630.2C556.1,907.4,535.9,927.6,511,927.6z"/>
	</g>
	<g>
		<path fill="#fff" d="M511,927.6c-24.9,0-45.1-20.2-45.1-45.1V252.3L226.1,492c-17.6,17.6-46.2,17.6-63.8,0c-17.6-17.6-17.6-46.2,0-63.8
			l316.8-316.8c12.9-12.9,32.3-16.8,49.2-9.8c16.9,7,27.9,23.4,27.9,41.7v739.2C556.1,907.4,535.9,927.6,511,927.6z"/>
	</g>
</g>
</svg>
