<?xml version="1.0" encoding="utf-8"?>
<!-- Generator: Adobe Illustrator 21.0.0, SVG Export Plug-In . SVG Version: 6.00 Build 0)  -->
<svg version="1.1" id="图层_1" xmlns="http://www.w3.org/2000/svg" xmlns:xlink="http://www.w3.org/1999/xlink" x="0px" y="0px"
	 viewBox="0 0 1024 1024" style="enable-background:new 0 0 1024 1024;" xml:space="preserve">
<g>
	<path d="M714.9,537.8h-409c-13.2,0-24-10.7-24-24c0-13.2,10.7-24,24-24h409c13.2,0,24,10.7,24,24
		C738.9,527,728.1,537.8,714.9,537.8z"/>
</g>
<g>
	<path d="M510.4,963.4c-247.9,0-449.6-201.7-449.6-449.6S262.5,64.2,510.4,64.2C758.3,64.2,960,265.9,960,513.8
		S758.3,963.4,510.4,963.4z M510.4,112.2c-221.5,0-401.6,180.2-401.6,401.6S289,915.4,510.4,915.4S912,735.2,912,513.8
		S731.9,112.2,510.4,112.2z"/>
</g>
</svg>
