<?xml version="1.0" encoding="utf-8"?>
<!-- Generator: Adobe Illustrator 21.0.0, SVG Export Plug-In . SVG Version: 6.00 Build 0)  -->
<svg version="1.1" id="图层_1" xmlns="http://www.w3.org/2000/svg" xmlns:xlink="http://www.w3.org/1999/xlink" x="0px" y="0px"
	 viewBox="0 0 1024 1024" style="enable-background:new 0 0 1024 1024;" xml:space="preserve">
<style type="text/css">
	.st0{fill:none;stroke:#000000;stroke-width:4;stroke-linecap:round;stroke-linejoin:round;stroke-miterlimit:10;}
	.st1{fill:none;}
</style>
<g>
	<path class="st0" d="M147.8,460.4"/>
</g>
<g>
	<rect x="80" y="103.1" class="st1" width="866.3" height="817.2"/>
</g>
<g>
	<g>
		<path d="M895.1,471.1H734.7c-18.2,0-32.9,14.8-32.9,33.1v10.3c0,18.3,14.7,33.1,32.9,33.1h160.3c18.2,0,32.9-14.8,32.9-33.1v-10.3
			C928,485.9,913.3,471.1,895.1,471.1L895.1,471.1z M523,187.4c-49.9,39.7-154.2,95.2-229.3,148.7l-0.1,0.1c-0.9,0.5-1.7,3.5-2.6,4
			c-8.9,5-12.9,18.8-61.1,18.8h-94.1c-24.1,0-39.1,11.3-39.1,36.8v226.6c0,25.5,13.7,38.1,39.1,38.1h94.5
			c48,0.1,51.9,13.8,60.7,18.8c0.9,0.5,1.7,3.5,2.6,4l0.1,0.1c72.7,53.4,177.8,113.4,229.3,151.4c15.5,11.5,67.1,31.6,67.1-39.2
			V223.6C590.2,152.7,538.2,175.4,523,187.4L523,187.4z M671.1,343.6c8.5,15,25.4,18.8,37.7,8.4l131.8-111.1
			c12.3-10.4,15.4-30.9,6.9-46l-4.8-8.5c-8.5-15-25.4-18.8-37.7-8.4L673.2,289.1c-12.3,10.4-15.4,31-6.9,46L671.1,343.6z
			 M708.8,667.1c-12.3-10.4-29.2-6.6-37.7,8.4l-4.8,8.5c-8.5,15-5.4,35.6,6.9,46L805,841.1c12.3,10.4,29.2,6.6,37.7-8.4l4.8-8.5
			c8.5-15,5.4-35.6-6.9-46L708.8,667.1z M708.8,667.1"/>
	</g>
</g>
</svg>
