<?xml version="1.0" encoding="utf-8"?>
<!-- Generator: Adobe Illustrator 21.0.0, SVG Export Plug-In . SVG Version: 6.00 Build 0)  -->
<svg version="1.1" id="图层_1" xmlns="http://www.w3.org/2000/svg" xmlns:xlink="http://www.w3.org/1999/xlink" x="0px" y="0px"
	 viewBox="0 0 1024 1024" style="enable-background:new 0 0 1024 1024;" xml:space="preserve">
<g>
	<circle cx="319" cy="437.4" r="36.4"/>
	<circle cx="512.3" cy="437.4" r="36.4"/>
	<circle cx="705.6" cy="437.4" r="36.4"/>
	<path d="M867.4,111H157.2c-50.5,0-91.6,41.1-91.6,91.6v469.6c0,50.5,41.1,91.6,91.6,91.6h93.2l36.1,134.6
		c2.1,7.9,8.3,14.1,16.2,16.2c2,0.5,3.9,0.8,5.9,0.8c6,0,11.8-2.4,16.2-6.7l144.9-144.9h397.7c50.5,0,91.6-41.1,91.6-91.6V202.6
		C959,152.1,917.9,111,867.4,111z M913.2,672.2c0,25.3-20.5,45.8-45.8,45.8H460.2c-6.1,0-11.9,2.4-16.2,6.7L320.5,848.3L290.1,735
		c-2.7-10-11.8-17-22.1-17H157.2c-25.3,0-45.8-20.5-45.8-45.8V202.6c0-25.3,20.5-45.8,45.8-45.8h710.2c25.3,0,45.8,20.5,45.8,45.8
		V672.2z"/>
</g>
</svg>
