<?xml version="1.0" encoding="utf-8"?>
<!-- Generator: Adobe Illustrator 21.0.0, SVG Export Plug-In . SVG Version: 6.00 Build 0)  -->
<svg version="1.1" id="图层_1" xmlns="http://www.w3.org/2000/svg" xmlns:xlink="http://www.w3.org/1999/xlink" x="0px" y="0px"
	 viewBox="0 0 1024 1024" style="enable-background:new 0 0 1024 1024;" xml:space="preserve">
<g>
	<path d="M882.2,527.3c0-78.3-23.6-151-63.9-210.9c-0.6-1-1-2.1-1.5-3c-5.2-7.4-10.6-14.2-16-21.2c-0.6-0.8-1.3-1.7-1.8-2.6
		c-37-45.8-83.4-81.4-135.7-104.7c-1.6-0.6-2.9-1.4-4.4-2c-8.4-3.6-17-6.6-25.7-9.7c-3-1-6.1-2.2-9.2-3.2
		c-7.6-2.4-15.1-4.2-22.8-6.1c-4.2-1-8.6-2.1-12.8-3c-2.1-0.4-4.1-1-6.2-1.5c-5.7-1-11.4-1.5-17.2-2.3c-4.1-0.5-7.9-1.1-11.9-1.5
		c-9.7-1-19.3-1.4-28.8-1.5c-1.8,0-3.5-0.3-5.2-0.3c-0.3,0-0.6,0.1-0.9,0.1c-73.7,0.1-145.7,22.9-207.4,67.5
		c-19.6,14.1-24.5,42.1-10.7,62.4c13.7,20.1,41,25.2,60.7,10.9c47.6-34.3,103.3-51.6,160.3-51.2c8.2,0.1,16.4,0.5,24.3,1.3
		c2.5,0.2,4.8,0.6,7.3,1c6.5,0.8,13,1.7,19.6,3.2c2.8,0.5,5.6,1.3,8.3,1.9c6.4,1.5,12.5,3,18.7,4.9c2.1,0.6,3.9,1.3,5.7,2.1
		c7.1,2.4,14,4.8,20.7,7.8c0.8,0.2,1.4,0.8,2.1,1c40.7,18,76.3,45.5,104.2,80.2c0.1,0.1,0.2,0.4,0.4,0.6
		c39.1,49,62.7,111.6,62.7,179.7h-72.8l116.4,179.2l116.1-179.2H882.2z"/>
	<path d="M665.5,731.4c-48,34.6-104.3,51.8-161.8,51.2c-7.6-0.1-15.1-0.7-22.6-1.3c-3.1-0.3-6-0.8-9.1-1.3
		c-5.9-0.8-11.8-1.5-17.5-2.8c-3.6-0.6-7.1-1.7-10.5-2.5c-5.6-1.3-11.3-2.6-16.7-4.2c-2.6-1-5-1.9-7.7-3c-6.4-2.1-12.7-4.3-18.8-6.9
		c-1.4-0.6-2.8-1.2-4-1.7c-7.1-3.4-14.2-6.8-21-10.5c-0.3-0.2-0.6-0.3-0.9-0.5c-23.2-13.1-44.3-29.2-62.9-48.4
		c-0.3-0.3-0.6-0.7-0.9-1c-5.7-5.9-11.3-12.1-16.5-18.7c-1.1-1.4-2.1-2.7-3.3-4.2C253.7,627.2,231,565.8,231,499.1h72.7L187.4,319.9
		L71.1,499h72.6c0,78.4,23.9,151.2,64.4,211.5c0.5,0.9,0.8,1.9,1.4,2.6c4.2,6.2,8.9,11.9,13.3,17.6c1.8,2.1,3.3,4.2,5,6.6
		c6.5,8.1,13.7,15.9,20.8,23.5c0.8,0.8,1.4,1.4,2,2.1c24.4,25.1,51.7,46,81.7,63c0.8,0.5,1.5,0.8,2.4,1.4
		c8.6,4.7,17.5,9.2,26.4,13.1c2.3,1,4.4,2.1,6.6,3c7.7,3.4,15.6,6.1,23.5,9c3.8,1.4,7.4,2.6,11.3,3.9c6.9,2.1,14,3.9,21.2,5.5
		c4.7,1.2,9.4,2.4,14.2,3.4c2,0.5,3.8,1.2,5.8,1.4c6.8,1.3,13.5,1.9,20.2,2.8c2.5,0.5,4.9,0.9,7.3,1.2c12.1,1.2,24.2,2,36.3,2
		c73.8,0,145.9-23.2,207.7-67.6c19.7-14.2,24.5-42.2,10.8-62.3C712.3,721.9,685.2,717.1,665.5,731.4z"/>
</g>
</svg>
