<?xml version="1.0" encoding="utf-8"?>
<!-- Generator: Adobe Illustrator 21.0.0, SVG Export Plug-In . SVG Version: 6.00 Build 0)  -->
<svg version="1.1" id="图层_1" xmlns="http://www.w3.org/2000/svg" xmlns:xlink="http://www.w3.org/1999/xlink" x="0px" y="0px"
	 viewBox="0 0 1024 1024" style="enable-background:new 0 0 1024 1024;" xml:space="preserve">
<path d="M867.9,777.2c-9.3-7.5-22.9-6-30.4,3.3c-77,95.9-196,146-318.1,133.9C320.9,894.7,175.3,717.1,195,518.5
	c9.5-96.2,56-182.9,130.7-244.2c67.3-55.2,150.4-83.7,236.4-81.9L503,239c-9.4,7.4-11,21-3.6,30.3c4.3,5.4,10.6,8.3,17,8.3
	c4.7,0,9.4-1.5,13.3-4.6L638,187.9c5.2-4.1,8.3-10.4,8.3-17s-3-12.9-8.3-17L529.8,68.8c-9.4-7.4-23-5.7-30.3,3.6
	c-7.4,9.4-5.8,23,3.6,30.3l59.1,46.5c-96.1-1.8-188.7,30.1-263.8,91.7C214.7,309.5,162.7,406.6,152,514.3
	C141.3,622,173.2,727.4,241.8,811c68.6,83.7,165.7,135.7,273.4,146.3c13.5,1.3,26.9,2,40.3,2c122.2,0,238-55.1,315.7-151.8
	C878.7,798.2,877.2,784.6,867.9,777.2z"/>
</svg>
