<?xml version="1.0" encoding="utf-8"?>
<!-- Generator: Adobe Illustrator 21.0.0, SVG Export Plug-In . SVG Version: 6.00 Build 0)  -->
<svg version="1.1" id="图层_1" xmlns="http://www.w3.org/2000/svg" xmlns:xlink="http://www.w3.org/1999/xlink" x="0px" y="0px"
	 viewBox="0 0 1024 1024" style="enable-background:new 0 0 1024 1024;" xml:space="preserve">
<g>
	<g>
		<path d="M379.6,668.7c-5.7,0-11.3-2.2-15.6-6.5c-8.6-8.6-8.6-22.6,0-31.3l266.7-266.7c8.6-8.6,22.6-8.6,31.3,0
			c8.6,8.6,8.6,22.6,0,31.3L395.3,662.2C390.9,666.5,385.3,668.7,379.6,668.7z"/>
	</g>
	<g>
		<path d="M646.4,668.7c-5.7,0-11.3-2.2-15.6-6.5L364,395.5c-8.6-8.6-8.6-22.6,0-31.3c8.6-8.6,22.6-8.6,31.3,0L662,630.9
			c8.6,8.6,8.6,22.6,0,31.3C657.7,666.5,652,668.7,646.4,668.7z"/>
	</g>
</g>
<g>
	<path d="M513,927.7c-106.2,0-212.4-40.4-293.2-121.3C58.1,644.8,58.1,381.7,219.8,220c161.7-161.7,424.7-161.7,586.4,0l0,0
		c161.7,161.7,161.7,424.8,0,586.4C725.4,887.3,619.2,927.7,513,927.7z M513,143c-94.9,0-189.7,36.1-261.9,108.3
		c-144.4,144.4-144.4,379.4,0,523.9c144.5,144.4,379.5,144.4,523.9,0c144.4-144.4,144.4-379.4,0-523.9
		C702.7,179.1,607.9,143,513,143z"/>
</g>
</svg>
