<?xml version="1.0" encoding="utf-8"?>
<!-- Generator: Adobe Illustrator 21.0.0, SVG Export Plug-In . SVG Version: 6.00 Build 0)  -->
<svg version="1.1" id="图层_1" xmlns="http://www.w3.org/2000/svg" xmlns:xlink="http://www.w3.org/1999/xlink" x="0px" y="0px"
	 viewBox="0 0 1024 1024" style="enable-background:new 0 0 1024 1024;" xml:space="preserve" width="8px" height="14px">
<g>
	<g>
		<g>
			<path fill="#fff" d="M513.3,312c-12.2,0-22.1,9.9-22.1,22.1v362.4c0,8.9,5.4,17,13.7,20.4c8.3,3.4,17.8,1.5,24.1-4.8l155.3-155.3
				c8.6-8.6,8.6-22.6,0-31.3c-8.6-8.6-22.6-8.6-31.3,0L535.5,643V334.1C535.5,321.9,525.5,312,513.3,312z"/>
		</g>
		<g>
			<path fill="#fff" d="M513.3,312c-12.2,0-22.1,9.9-22.1,22.1V643L373.7,525.5c-8.6-8.6-22.6-8.6-31.3,0c-8.6,8.6-8.6,22.6,0,31.3l155.3,155.3
				c6.3,6.3,15.8,8.2,24.1,4.8c8.3-3.4,13.7-11.5,13.7-20.4V334.1C535.5,321.9,525.5,312,513.3,312z"/>
		</g>
	</g>
	<g>
		<path fill="#fff" d="M806.7,221.9c161.7,161.7,161.7,424.9,0,586.7l0,0c-161.8,161.7-424.9,161.7-586.7,0C58.2,646.9,58.2,383.7,220,221.9
			c80.9-80.9,187.1-121.3,293.3-121.3C619.6,100.6,725.8,141.1,806.7,221.9z M775.4,777.3c144.5-144.5,144.5-379.6,0-524.1
			c-144.5-144.5-379.6-144.5-524.1,0c-144.5,144.5-144.5,379.6,0,524.1c72.2,72.2,167.2,108.4,262.1,108.4
			C608.2,885.7,703.1,849.6,775.4,777.3z"/>
	</g>
</g>
</svg>
