<?xml version="1.0" encoding="utf-8"?>
<!-- Generator: Adobe Illustrator 21.0.0, SVG Export Plug-In . SVG Version: 6.00 Build 0)  -->
<svg version="1.1" id="图层_1" xmlns="http://www.w3.org/2000/svg" xmlns:xlink="http://www.w3.org/1999/xlink" x="0px" y="0px"
	 viewBox="0 0 1024 1024" style="enable-background:new 0 0 1024 1024;" xml:space="preserve" width="14px" height="14px">
<g>
	<g>
		<path fill="#fff" d="M513.3,718.6c-12.2,0-22.1-9.9-22.1-22.1V334.1c0-8.9,5.4-17,13.7-20.4c8.3-3.4,17.8-1.5,24.1,4.8l155.3,155.3
			c8.6,8.6,8.6,22.6,0,31.3c-8.6,8.6-22.6,8.6-31.3,0L535.5,387.5v308.9C535.5,708.7,525.5,718.6,513.3,718.6z"/>
	</g>
	<g>
		<path fill="#fff" d="M513.3,718.6c-12.2,0-22.1-9.9-22.1-22.1V387.5L373.7,505c-8.6,8.6-22.6,8.6-31.3,0c-8.6-8.6-8.6-22.6,0-31.3l155.3-155.3
			c6.3-6.3,15.8-8.2,24.1-4.8c8.3,3.4,13.7,11.5,13.7,20.4v362.4C535.5,708.7,525.5,718.6,513.3,718.6z"/>
	</g>
</g>
<g>
	<path fill="#fff" d="M513.3,929.9c-106.2,0-212.5-40.4-293.3-121.3c-161.7-161.7-161.7-425,0-586.7c161.8-161.7,424.9-161.7,586.7,0l0,0
		c161.7,161.7,161.7,425,0,586.7C725.8,889.5,619.6,929.9,513.3,929.9z M513.3,144.8c-94.9,0-189.8,36.1-262.1,108.4
		c-144.5,144.5-144.5,379.6,0,524.1c144.5,144.5,379.6,144.5,524.1,0c144.5-144.5,144.5-379.6,0-524.1
		C703.1,181,608.2,144.8,513.3,144.8z"/>
</g>
</svg>
