<?xml version="1.0" encoding="utf-8"?>
<!-- Generator: Adobe Illustrator 21.0.0, SVG Export Plug-In . SVG Version: 6.00 Build 0)  -->
<svg version="1.1" id="图层_1" xmlns="http://www.w3.org/2000/svg" xmlns:xlink="http://www.w3.org/1999/xlink" x="0px" y="0px"
	 viewBox="0 0 1024 1024" style="enable-background:new 0 0 1024 1024;" xml:space="preserve">
<g>
	<path d="M858.9,98.2H167.1c-38,0-69.2,31.1-69.2,69.2v691.8c0,38.1,31.1,69.2,69.2,69.2h691.8c38,0,69.2-31.1,69.2-69.2V167.3
		C928.1,129.3,896.9,98.2,858.9,98.2L858.9,98.2z M669.5,270.8c47.8,0,86.4,38.7,86.4,86.5c0,47.8-38.6,86.5-86.4,86.5
		c-47.8,0-86.5-38.7-86.5-86.5C583.1,309.5,621.7,270.8,669.5,270.8L669.5,270.8z M737.8,755.4H288.2c-38,0-59.8-29.7-48.2-65.9
		l87.9-277.3c11.5-36.3,39.4-40.9,62-10.3L535.3,599c22.6,30.6,60.3,31.1,83.7,1.1l44.5-56.8c23.4-30,53.6-25.4,67.1,10.1
		l51.9,137.2C796,726.3,775.9,755.4,737.8,755.4L737.8,755.4z M737.8,755.4"/>
</g>
</svg>
