<?xml version="1.0" encoding="utf-8"?>
<!-- Generator: Adobe Illustrator 21.0.0, SVG Export Plug-In . SVG Version: 6.00 Build 0)  -->
<svg version="1.1" id="图层_1" xmlns="http://www.w3.org/2000/svg" xmlns:xlink="http://www.w3.org/1999/xlink" x="0px" y="0px"
	 viewBox="0 0 1024 1024" style="enable-background:new 0 0 1024 1024;" xml:space="preserve" width="20px" height="21px">
<g>
	<g>
		<path fill="#4C4C4C" d="M761.8,928.3h-499c-75.5,0-137-61.4-137-137V235.1c0-75.5,61.4-137,137-137h352.9c14.1,0,25.4,11.4,25.4,25.4
			S629.7,149,615.7,149H262.8c-47.5,0-86.1,38.6-86.1,86.1v556.2c0,47.5,38.6,86.1,86.1,86.1h499c47.5,0,86.1-38.6,86.1-86.1V378.5
			c0-14.1,11.4-25.4,25.4-25.4c14.1,0,25.4,11.4,25.4,25.4v412.9C898.7,866.9,837.3,928.3,761.8,928.3z"/>
	</g>
	<g>
		<path fill="#4C4C4C" d="M519.3,538.7c-5.8,0-11.7-2-16.5-6.1c-10.7-9.1-12-25.2-2.9-35.9l331.8-389.6c9.1-10.7,25.2-12,35.9-2.9
			c10.7,9.1,12,25.2,2.9,35.9L538.6,529.7C533.6,535.6,526.5,538.7,519.3,538.7z"/>
	</g>
</g>
</svg>
