<?xml version="1.0" encoding="utf-8"?>
<!-- Generator: Adobe Illustrator 21.0.0, SVG Export Plug-In . SVG Version: 6.00 Build 0)  -->
<svg version="1.1" id="图层_1" xmlns="http://www.w3.org/2000/svg" xmlns:xlink="http://www.w3.org/1999/xlink" x="0px" y="0px"
	 viewBox="0 0 1024 1024" style="enable-background:new 0 0 1024 1024;" xml:space="preserve" width="16px" height="16px">
<g>
	<g>
		<path d="M508.5,583.3c-12.6,0-24.5-3.9-34.5-11.3L100.7,369.2c-3.8-2-7.2-4.6-10.2-7.6c-11-11-17-25.7-16.9-41.3
			c0.1-15.6,6.2-30.3,17.3-41.3c3.3-3.3,7.2-6.1,11.4-8.3L482.5,79.2c10.1-7.3,22-11.2,34.5-11.2c12,0,23.4,3.6,33.2,10.4
			l372.9,177.2c4.6,2.2,8.7,5.1,12.3,8.7c11.1,11,17.2,26.4,16.9,42.1c-0.3,15.3-6.4,29.7-17.3,40.6c-2.8,2.8-6,5.2-9.4,7.2
			L544.2,571.2C533.9,579.2,521.5,583.3,508.5,583.3z M517,98.4c-6.3,0-12.2,2-17.2,5.8c-0.8,0.6-1.6,1.1-2.4,1.5L116,297.9
			c-1.3,0.7-2.5,1.5-3.6,2.6c-5.3,5.3-8.3,12.4-8.4,19.9c0,7.4,2.8,14.4,8,19.6c0.9,0.9,2,1.8,3.2,2.4l374.3,203.3
			c0.7,0.4,1.4,0.9,2.1,1.4c4.8,3.7,10.6,5.7,16.8,5.7c6.5,0,12.6-2.1,17.7-6.2c0.6-0.5,1.3-1,2-1.4l382.5-217.7
			c1.1-0.6,2.1-1.4,3-2.3c5.3-5.3,8.2-12.2,8.4-19.6c0.1-7.5-2.8-14.7-8-20c-1.1-1.1-2.4-2-3.9-2.7L535.9,105.3
			c-0.9-0.4-1.7-0.9-2.5-1.5C528.7,100.3,523,98.4,517,98.4z"/>
	</g>
	<g>
		<path d="M505.9,708.2C505.9,708.2,505.9,708.2,505.9,708.2c-12.4,0-24.6-4-34.5-11.3L98.2,494.1c-10.4-5.7-18-15-21.4-26.4
			c-3.4-11.4-2.1-23.4,3.6-33.8c4-7.4,13.3-10.1,20.7-6.1c7.4,4,10.1,13.3,6.1,20.7c-1.8,3.3-2.2,7-1.1,10.6
			c1.1,3.6,3.4,6.5,6.7,8.3L487,670.7c0.7,0.4,1.4,0.8,2.1,1.3c4.8,3.7,10.6,5.7,16.8,5.7c0,0,0,0,0,0c6.4,0,12.7-2.2,17.7-6.2
			c0.6-0.5,1.3-0.9,2-1.3l382.5-217.7c3.2-1.8,5.5-4.8,6.5-8.4c1-3.6,0.5-7.3-1.3-10.6c-4.2-7.3-1.6-16.6,5.7-20.8
			c7.3-4.2,16.6-1.6,20.8,5.7c5.9,10.3,7.4,22.3,4.2,33.7c-3.1,11.4-10.5,21-20.8,26.8L541.6,696.1
			C531.4,703.9,518.8,708.2,505.9,708.2z"/>
	</g>
	<g>
		<path d="M505.9,833.4C505.9,833.4,505.9,833.4,505.9,833.4c-12.4,0-24.6-4-34.5-11.3L98.2,619.3c-10.4-5.7-18-15-21.4-26.4
			c-3.4-11.4-2.1-23.4,3.6-33.8c4-7.4,13.3-10.1,20.7-6.1c7.4,4,10.1,13.3,6.1,20.7c-1.8,3.3-2.2,7-1.1,10.6
			c1.1,3.6,3.4,6.5,6.7,8.3L487,795.8c0.7,0.4,1.4,0.8,2.1,1.3c4.8,3.7,10.6,5.7,16.8,5.7c0,0,0,0,0,0c6.4,0,12.7-2.2,17.7-6.2
			c0.6-0.5,1.3-0.9,2-1.3l382.5-217.7c6.7-3.8,9-12.3,5.2-19c-4.2-7.3-1.6-16.6,5.7-20.8c7.3-4.2,16.6-1.6,20.8,5.7
			c12.1,21.3,4.7,48.4-16.6,60.5L541.6,821.3C531.4,829.1,518.8,833.4,505.9,833.4z"/>
	</g>
	<g>
		<path d="M506,958.5C505.9,958.5,505.9,958.5,506,958.5c-12.4,0-24.6-4-34.5-11.3L98.2,744.4c-21.5-11.7-29.5-38.7-17.8-60.2
			c4-7.4,13.3-10.1,20.7-6.1c7.4,4,10.1,13.3,6.1,20.7c-3.7,6.7-1.2,15.2,5.6,18.9L487,921c0.7,0.4,1.4,0.8,2.1,1.3
			c4.8,3.7,10.6,5.7,16.8,5.7c0,0,0,0,0,0c6.4,0,12.7-2.2,17.7-6.2c0.6-0.5,1.3-0.9,2-1.3l382.5-217.7c6.7-3.8,9-12.3,5.2-19
			c-4.2-7.3-1.6-16.6,5.7-20.8c7.3-4.2,16.6-1.6,20.8,5.7c12.1,21.3,4.7,48.4-16.6,60.5L541.6,946.4
			C531.4,954.2,518.8,958.5,506,958.5z"/>
	</g>
</g>
</svg>
