<?xml version="1.0" encoding="utf-8"?>
<!-- Generator: Adobe Illustrator 21.0.0, SVG Export Plug-In . SVG Version: 6.00 Build 0)  -->
<svg version="1.1" id="图层_1" xmlns="http://www.w3.org/2000/svg" xmlns:xlink="http://www.w3.org/1999/xlink" x="0px" y="0px"
	 viewBox="0 0 1024 1024" style="enable-background:new 0 0 1024 1024;" xml:space="preserve">
<path d="M512.4,152l101.3,205.3c10.1,20.5,29.6,34.6,52.2,37.9l226.6,32.9L728.6,588c-16.3,15.9-23.8,38.9-19.9,61.3L747.3,875
	L544.7,768.5c-9.9-5.2-21.1-8-32.2-8c-11.2,0-22.3,2.8-32.2,8L277.5,875l38.7-225.7c3.9-22.5-3.6-45.4-19.9-61.3l-164-159.8
	l226.6-32.9c22.6-3.3,42.1-17.5,52.2-37.9L512.4,152 M512.4,98.2c-10.4,0-20.8,5.4-26.2,16.3L375.1,339.6c-4.3,8.6-12.5,14.6-22,16
	l-248.4,36.1c-24,3.5-33.5,32.9-16.2,49.8l179.8,175.2c6.9,6.7,10,16.4,8.4,25.9L234.3,890c-3.2,18.9,11.8,34.2,28.8,34.2
	c4.5,0,9.1-1.1,13.6-3.4L498.8,804c4.3-2.2,8.9-3.4,13.6-3.4c4.7,0,9.3,1.1,13.6,3.4l222.2,116.8c4.5,2.4,9.1,3.4,13.6,3.4
	c17,0,32-15.3,28.8-34.2l-42.4-247.4c-1.6-9.5,1.5-19.1,8.4-25.9l179.8-175.2c17.3-16.9,7.8-46.3-16.2-49.8l-248.4-36.1
	c-9.5-1.4-17.7-7.4-22-16L538.6,114.5C533.3,103.7,522.8,98.2,512.4,98.2L512.4,98.2z"/>
</svg>
