<?xml version="1.0" encoding="utf-8"?>
<!-- Generator: Adobe Illustrator 21.0.0, SVG Export Plug-In . SVG Version: 6.00 Build 0)  -->
<svg version="1.1" id="图层_1" xmlns="http://www.w3.org/2000/svg" xmlns:xlink="http://www.w3.org/1999/xlink" x="0px" y="0px"
	 viewBox="0 0 1024 1024" style="enable-background:new 0 0 1024 1024;" xml:space="preserve">
<style type="text/css">
	.st0{fill:none;stroke:#000000;stroke-width:4;stroke-linecap:round;stroke-linejoin:round;stroke-miterlimit:10;}
	.st1{fill:none;}
</style>
<g>
	<path class="st0" d="M147.8,460.4"/>
</g>
<g>
	<rect x="80" y="103.1" class="st1" width="866.3" height="817.2"/>
</g>
<g>
	<path d="M265.1,387.4H137.7c-38.5,0-69.8,31.3-69.8,69.8v401.6c0,38.6,31.3,69.8,69.8,69.8h127.4V387.4z"/>
	<path d="M943,413.5c-13.3-16.5-33.3-26.1-54.4-26.1H649.2c7.4-15.6,15.5-33.8,22.8-53.3c13.2-34.7,21.7-66.2,25.2-93.8
		c5-38.8,0.4-71.1-13.8-95.9C658,99.9,610,90.6,574.2,90.6c-38.6,0-71.4,20-97.4,59.3c-19.5,29.5-34,67.5-48,104.2
		c-30.7,80.6-54.2,133.4-99,133.4h-1.9v0h0.7v541.2h472.9c32.7,0,61.1-22.7,68.2-54.7v-0.2l87-401.5
		C961.3,451.6,956.2,430,943,413.5z"/>
</g>
</svg>
