<?xml version="1.0" encoding="utf-8"?>
<!-- Generator: Adobe Illustrator 21.0.0, SVG Export Plug-In . SVG Version: 6.00 Build 0)  -->
<svg version="1.1" id="图层_1" xmlns="http://www.w3.org/2000/svg" xmlns:xlink="http://www.w3.org/1999/xlink" x="0px" y="0px"
	 viewBox="0 0 1024 1024" style="enable-background:new 0 0 1024 1024;" xml:space="preserve">
<style type="text/css">
	.st0{fill:none;stroke:#000000;stroke-width:4;stroke-linecap:round;stroke-linejoin:round;stroke-miterlimit:10;}
	.st1{fill:none;}
</style>
<g>
	<path d="M793.6,934.3C793.6,934.3,793.6,934.3,793.6,934.3H147.8c-45.8-0.1-83.2-37.4-83.2-83.2V460.5c0-45.8,37.4-83.2,83.2-83.2
		h186.9c33.7,0,55.3-49.7,82-119.9c13.9-36.5,28.3-74.2,48.3-104.4c28.4-42.8,64.5-64.5,107.5-64.5c38.9,0,91.2,10.4,119.5,60
		c15.5,27.1,20.6,61.7,15.3,102.9c-3.6,28-12.2,59.9-25.4,94.8c-3.8,10.1-8.1,20.5-12.7,31.2h209.2c25.3,0,49,11.3,64.9,31.1
		c15.9,19.8,21.8,45.3,16.4,70.1L875,868.1c-0.1,0.4-0.1,0.7-0.2,1C866.3,907.5,832.9,934.3,793.6,934.3z M147.8,407.8
		c-29,0-52.6,23.7-52.7,52.7v390.7c0,29,23.7,52.6,52.7,52.7h645.8h0c0,0,0,0,0,0c24.6,0,45.6-16.6,51.2-40.5c0-0.3,0.1-0.6,0.1-0.8
		l84.6-390.6c3.5-15.7-0.3-31.9-10.4-44.4c-10.1-12.5-25-19.7-41.1-19.7H645.3c-5.2,0-10.1-2.7-12.9-7.1c-2.8-4.4-3.1-10-0.9-14.7
		c8.3-17.4,15.6-34.5,21.7-50.7c12.4-32.6,20.4-62.2,23.7-87.8c4.5-34.4,0.6-62.6-11.5-83.8c-21.1-36.9-62.2-44.6-93-44.6
		c-32.1,0-59.7,17.1-82.1,50.8c-18.1,27.3-31.9,63.4-45.2,98.4c-32.1,84.3-57.2,139.6-110.5,139.6H147.8z"/>
</g>
<g>
	<path class="st0" d="M147.8,460.4"/>
</g>
<g>
	<rect x="80" y="103.1" class="st1" width="866.3" height="817.2"/>
</g>
<g>
	<path d="M317.6,935.6c-8.4,0-15.3-6.8-15.3-15.3V392.5c0-8.4,6.8-15.3,15.3-15.3c8.4,0,15.3,6.8,15.3,15.3v527.8
		C332.9,928.8,326,935.6,317.6,935.6z"/>
</g>
</svg>
