<?xml version="1.0" encoding="utf-8"?>
<!-- Generator: Adobe Illustrator 21.0.0, SVG Export Plug-In . SVG Version: 6.00 Build 0)  -->
<svg version="1.1" id="图层_1" xmlns="http://www.w3.org/2000/svg" xmlns:xlink="http://www.w3.org/1999/xlink" x="0px" y="0px"
	 viewBox="0 0 1024 1024" style="enable-background:new 0 0 1024 1024;" xml:space="preserve" width="16px" height="16px">
<g>
	<path d="M512.6,140.2c21.8,0,42.1,8.4,57.3,23.6l290.9,290.9c31.6,31.6,31.6,83.1,0,114.7L570,860.2
		c-15.2,15.2-35.6,23.6-57.3,23.6c-21.8,0-42.1-8.4-57.3-23.6L164.4,569.3c-31.6-31.6-31.6-83.1,0-114.7l290.9-290.9
		C470.5,148.6,490.9,140.2,512.6,140.2 M512.6,99.6c-31.2,0-62.4,11.8-86,35.5L135.7,426c-47.3,47.3-47.3,124.7,0,172l290.9,290.9
		c23.7,23.7,54.8,35.5,86,35.5c31.2,0,62.4-11.8,86-35.5L889.5,598c47.3-47.3,47.3-124.7,0-172L598.6,135.1
		C575,111.5,543.8,99.6,512.6,99.6L512.6,99.6z"/>
	<path d="M686.4,237.5L621.2,280c-5.4-2.9-11.2-5.1-17.5-6.5c-34.4-7.2-68,14.7-75.2,49.1c-1.3,6.3-1.7,12.5-1.2,18.6l-112,73.2
		c-5.5-3.2-11.6-5.5-18.2-6.9c-34.4-7.2-68,14.7-75.2,49.1c-5.9,28,7.6,55.5,31.4,68.6l0.4,0.7l0.3-0.2c5.2,2.7,10.8,4.8,16.8,6.1
		c34.4,7.2,68-14.7,75.2-49.1c1.3-6,1.7-12.1,1.2-17.9l99.2-64.7l-45.3,215.4c-21.7,6.3-39.4,24.1-44.4,47.9
		c-7.2,34.4,14.7,68,49.1,75.2c34.4,7.2,68-14.7,75.2-49.1c5-23.8-4-47.2-21.4-61.7l48.6-231.2c21.7-6.3,39.4-24.1,44.4-47.9
		c1.3-6.3,1.7-12.5,1.2-18.6l65.1-42.5"/>
</g>
</svg>
